<mxfile host="app.diagrams.net" modified="2022-10-11T12:25:53.537Z" agent="5.0 (Macintosh; Intel Mac OS X 10_15_7) AppleWebKit/537.36 (KHTML, like Gecko) Chrome/106.0.0.0 Safari/537.36" etag="zfeFEQcwxKAOzZ32-i7h" version="20.4.0" type="github">
  <diagram id="P7L786mZvAudXP0N_r-a" name="Page-1">
    <mxGraphModel dx="1426" dy="800" grid="1" gridSize="10" guides="1" tooltips="1" connect="1" arrows="1" fold="1" page="1" pageScale="1" pageWidth="850" pageHeight="1100" math="0" shadow="0">
      <root>
        <mxCell id="0" />
        <mxCell id="1" parent="0" />
        <mxCell id="WjGHIuiHUUWXChhv9-Ed-1" value="" style="rounded=0;whiteSpace=wrap;html=1;fillColor=#f5f5f5;fontColor=#333333;strokeColor=#666666;" vertex="1" parent="1">
          <mxGeometry x="120" y="80" width="600" height="390" as="geometry" />
        </mxCell>
        <mxCell id="WjGHIuiHUUWXChhv9-Ed-4" value="" style="rounded=1;whiteSpace=wrap;html=1;fillColor=#dae8fc;strokeColor=#6c8ebf;align=left;" vertex="1" parent="1">
          <mxGeometry x="250" y="222.5" width="330" height="80" as="geometry" />
        </mxCell>
        <mxCell id="WjGHIuiHUUWXChhv9-Ed-2" value="OPS DB&lt;br&gt;capacity_for_quota&amp;nbsp;" style="shape=cylinder3;whiteSpace=wrap;html=1;boundedLbl=1;backgroundOutline=1;size=15;fillColor=#fff2cc;strokeColor=#d6b656;" vertex="1" parent="1">
          <mxGeometry x="330" y="100" width="170" height="70" as="geometry" />
        </mxCell>
        <mxCell id="WjGHIuiHUUWXChhv9-Ed-3" value="" style="endArrow=classic;html=1;rounded=0;fontColor=#000000;" edge="1" parent="1">
          <mxGeometry width="50" height="50" relative="1" as="geometry">
            <mxPoint x="414.5" y="180" as="sourcePoint" />
            <mxPoint x="415" y="240" as="targetPoint" />
          </mxGeometry>
        </mxCell>
        <mxCell id="WjGHIuiHUUWXChhv9-Ed-5" value="&lt;font style=&quot;font-size: 15px;&quot;&gt;cronjob&lt;/font&gt;" style="rounded=0;whiteSpace=wrap;html=1;fontColor=#000000;fillColor=none;strokeColor=none;" vertex="1" parent="1">
          <mxGeometry x="385" y="248.75" width="60" height="27.5" as="geometry" />
        </mxCell>
        <mxCell id="WjGHIuiHUUWXChhv9-Ed-6" value="scb&lt;br&gt;app-default-priority-class&lt;font color=&quot;#000000&quot;&gt;&lt;br&gt;&lt;/font&gt;" style="rounded=0;whiteSpace=wrap;html=1;fillColor=#d5e8d4;strokeColor=#82b366;" vertex="1" parent="1">
          <mxGeometry x="190" y="370" width="120" height="70" as="geometry" />
        </mxCell>
        <mxCell id="WjGHIuiHUUWXChhv9-Ed-7" value="scb&lt;br&gt;app-lower-priority-class&lt;font color=&quot;#000000&quot;&gt;&lt;br&gt;&lt;/font&gt;" style="rounded=0;whiteSpace=wrap;html=1;fillColor=#d5e8d4;strokeColor=#82b366;" vertex="1" parent="1">
          <mxGeometry x="355" y="370" width="120" height="70" as="geometry" />
        </mxCell>
        <mxCell id="WjGHIuiHUUWXChhv9-Ed-8" value="&lt;div style=&quot;&quot;&gt;&lt;span style=&quot;background-color: initial;&quot;&gt;scb&lt;/span&gt;&lt;/div&gt;app-high-priority-class&lt;font color=&quot;#000000&quot;&gt;&lt;br&gt;&lt;/font&gt;" style="rounded=0;whiteSpace=wrap;html=1;fillColor=#d5e8d4;strokeColor=#82b366;" vertex="1" parent="1">
          <mxGeometry x="530" y="370" width="120" height="70" as="geometry" />
        </mxCell>
        <mxCell id="WjGHIuiHUUWXChhv9-Ed-9" value="" style="endArrow=classic;html=1;rounded=0;fontSize=15;exitX=0.5;exitY=1;exitDx=0;exitDy=0;entryX=0.5;entryY=0;entryDx=0;entryDy=0;" edge="1" parent="1" source="WjGHIuiHUUWXChhv9-Ed-4" target="WjGHIuiHUUWXChhv9-Ed-6">
          <mxGeometry width="50" height="50" relative="1" as="geometry">
            <mxPoint x="400" y="410" as="sourcePoint" />
            <mxPoint x="450" y="360" as="targetPoint" />
          </mxGeometry>
        </mxCell>
        <mxCell id="WjGHIuiHUUWXChhv9-Ed-10" value="" style="endArrow=classic;html=1;rounded=0;fontSize=15;exitX=0.5;exitY=1;exitDx=0;exitDy=0;entryX=0.5;entryY=0;entryDx=0;entryDy=0;" edge="1" parent="1" source="WjGHIuiHUUWXChhv9-Ed-4" target="WjGHIuiHUUWXChhv9-Ed-8">
          <mxGeometry width="50" height="50" relative="1" as="geometry">
            <mxPoint x="425" y="312.5" as="sourcePoint" />
            <mxPoint x="260" y="380" as="targetPoint" />
          </mxGeometry>
        </mxCell>
        <mxCell id="WjGHIuiHUUWXChhv9-Ed-11" value="" style="endArrow=classic;html=1;rounded=0;fontSize=15;exitX=0.5;exitY=1;exitDx=0;exitDy=0;entryX=0.5;entryY=0;entryDx=0;entryDy=0;" edge="1" parent="1" source="WjGHIuiHUUWXChhv9-Ed-4" target="WjGHIuiHUUWXChhv9-Ed-7">
          <mxGeometry width="50" height="50" relative="1" as="geometry">
            <mxPoint x="425" y="312.5" as="sourcePoint" />
            <mxPoint x="600" y="380" as="targetPoint" />
          </mxGeometry>
        </mxCell>
      </root>
    </mxGraphModel>
  </diagram>
</mxfile>
